STARTFONT 2.1
COMMENT  (c) Copyright Bigelow & Holmes 1986, 1985. Lucida is a registered
COMMENT  trademark of Bigelow & Holmes. See LEGAL NOTICE file for terms 
COMMENT  of the license. 
FONT -B&H-Lucida-Medium-I-Normal-Sans-25-180-100-100-P-141-ISO8859-1
SIZE 18 100 100
FONTBOUNDINGBOX 48 28 -15 -5
STARTPROPERTIES 19
COMMENT Begin LogicalFontDescription
FONTNAME_REGISTRY ""
FOUNDRY "B&H"
FAMILY_NAME "Lucida"
WEIGHT_NAME "Medium"
SLANT "I"
SETWIDTH_NAME "Normal"
ADD_STYLE_NAME "Sans"
PIXEL_SIZE 25
POINT_SIZE 180
RESOLUTION_X 100
RESOLUTION_Y 100
SPACING "P"
AVERAGE_WIDTH 141
CHARSET_REGISTRY "ISO8859"
CHARSET_ENCODING "1"
COMMENT END LogicalFontDescription
FONT_ASCENT 23
FONT_DESCENT 6
DEFAULT_CHAR 32
COPYRIGHT "Copyright Bigelow & Holmes 1986, 1985."
ENDPROPERTIES
CHARS 228
STARTCHAR space
ENCODING 32
SWIDTH 42 0
DWIDTH 8 0
BBX 1 1 0 0
BITMAP
00
ENDCHAR
STARTCHAR exclam
ENCODING 33
SWIDTH 42 0
DWIDTH 8 0
BBX 6 18 3 0
BITMAP
1C
1C
1C
18
18
18
38
30
30
30
30
20
60
00
00
00
E0
E0
ENDCHAR
STARTCHAR quotedbl
ENCODING 34
SWIDTH 42 0
DWIDTH 9 0
BBX 7 6 4 12
BITMAP
CE
CE
CC
CC
CC
CC
ENDCHAR
STARTCHAR numbersign
ENCODING 35
SWIDTH 42 0
DWIDTH 16 0
BBX 15 18 2 0
BITMAP
00C6
008C
018C
0118
0318
7FFE
7FFE
0620
0460
0C40
08C0
FFFC
FFFC
3180
3380
6300
6700
C600
ENDCHAR
STARTCHAR dollar
ENCODING 36
SWIDTH 42 0
DWIDTH 16 0
BBX 12 22 3 -2
BITMAP
0180
0180
03F0
0FF0
1F90
3900
3100
3300
3A00
1E00
0E00
0700
0580
04C0
04C0
04C0
0CC0
89C0
FF80
FE00
0800
1800
ENDCHAR
STARTCHAR percent
ENCODING 37
SWIDTH 42 0
DWIDTH 19 0
BBX 18 18 2 0
BITMAP
0F01C0
1F8300
398600
318600
318C00
219800
333000
3F6000
1EC000
019E00
033F00
037300
066300
0C4300
184300
306600
607E00
C03800
ENDCHAR
STARTCHAR ampersand
ENCODING 38
SWIDTH 42 0
DWIDTH 18 0
BBX 16 18 2 0
BITMAP
00F8
01FC
038C
030C
031C
0338
03F0
07E0
1F83
7983
71C7
E0C6
E0E6
E07C
E038
7078
7FDC
1F1E
ENDCHAR
STARTCHAR quoteright
ENCODING 39
SWIDTH 42 0
DWIDTH 5 0
BBX 4 6 4 12
BITMAP
70
70
70
60
60
C0
ENDCHAR
STARTCHAR parenleft
ENCODING 40
SWIDTH 42 0
DWIDTH 8 0
BBX 8 22 2 -4
BITMAP
01
03
06
0C
1C
18
30
70
60
60
E0
E0
C0
C0
C0
C0
C0
C0
60
60
30
10
ENDCHAR
STARTCHAR parenright
ENCODING 41
SWIDTH 42 0
DWIDTH 8 0
BBX 8 22 1 -4
BITMAP
08
0C
06
06
03
03
03
03
03
03
03
07
07
06
0E
0C
1C
18
30
60
C0
80
ENDCHAR
STARTCHAR asterisk
ENCODING 42
SWIDTH 42 0
DWIDTH 12 0
BBX 9 9 4 9
BITMAP
0C00
0C00
4800
EB80
3700
1800
2400
E600
4400
ENDCHAR
STARTCHAR plus
ENCODING 43
SWIDTH 42 0
DWIDTH 16 0
BBX 15 15 2 0
BITMAP
00C0
00C0
0180
0180
0180
0180
FFFE
FFFE
0300
0300
0300
0300
0300
0600
0600
ENDCHAR
STARTCHAR comma
ENCODING 44
SWIDTH 42 0
DWIDTH 8 0
BBX 4 8 2 -5
BITMAP
70
70
70
20
20
60
60
C0
ENDCHAR
STARTCHAR minus
ENCODING 45
SWIDTH 42 0
DWIDTH 16 0
BBX 15 2 2 6
BITMAP
FFFE
FFFE
ENDCHAR
STARTCHAR period
ENCODING 46
SWIDTH 42 0
DWIDTH 8 0
BBX 4 2 2 0
BITMAP
70
E0
ENDCHAR
STARTCHAR slash
ENCODING 47
SWIDTH 42 0
DWIDTH 12 0
BBX 16 22 0 -4
BITMAP
0003
0006
000C
000C
0018
0038
0030
0060
0060
00C0
0180
0180
0300
0600
0600
0C00
1C00
1800
3000
3000
6000
C000
ENDCHAR
STARTCHAR zero
ENCODING 48
SWIDTH 42 0
DWIDTH 16 0
BBX 13 18 3 0
BITMAP
03E0
07F0
1C38
1818
3018
7018
6018
6018
E018
E018
E038
C030
C070
C060
E0E0
71C0
7F80
1E00
ENDCHAR
STARTCHAR one
ENCODING 49
SWIDTH 42 0
DWIDTH 16 0
BBX 6 18 7 0
BITMAP
7C
FC
18
18
18
38
38
30
30
30
70
70
60
60
60
E0
E0
C0
ENDCHAR
STARTCHAR two
ENCODING 50
SWIDTH 42 0
DWIDTH 16 0
BBX 14 18 2 0
BITMAP
07F0
0FF8
183C
001C
001C
001C
0018
0038
0070
00E0
0380
0700
0C00
3800
7000
7000
FFE0
FFE0
ENDCHAR
STARTCHAR three
ENCODING 51
SWIDTH 42 0
DWIDTH 16 0
BBX 13 18 3 0
BITMAP
0FC0
0FF0
1870
0038
0038
0070
00E0
0FC0
1F80
01E0
00E0
0060
0060
0060
00E0
C1C0
FF80
7E00
ENDCHAR
STARTCHAR four
ENCODING 52
SWIDTH 42 0
DWIDTH 16 0
BBX 13 18 2 0
BITMAP
0038
0078
00F0
01F0
03B0
0730
0E70
1C60
1860
3060
6060
FFF8
FFF8
00C0
00C0
01C0
01C0
0180
ENDCHAR
STARTCHAR five
ENCODING 53
SWIDTH 42 0
DWIDTH 16 0
BBX 13 18 3 0
BITMAP
0FF8
1FF8
1800
1800
1800
1000
3F00
3FC0
01E0
00E0
0060
0060
0060
00E0
00C0
C3C0
FF80
FE00
ENDCHAR
STARTCHAR six
ENCODING 54
SWIDTH 42 0
DWIDTH 16 0
BBX 14 18 3 0
BITMAP
01F8
07FC
0E08
1800
3800
3000
67C0
7FE0
F870
E030
E030
E030
C030
E070
E0E0
71C0
7F80
1F00
ENDCHAR
STARTCHAR seven
ENCODING 55
SWIDTH 42 0
DWIDTH 16 0
BBX 14 18 4 0
BITMAP
3FFC
3FFC
003C
0078
00F0
00E0
01C0
0380
0700
0E00
1C00
1C00
3800
3800
7000
7000
E000
E000
ENDCHAR
STARTCHAR eight
ENCODING 56
SWIDTH 42 0
DWIDTH 16 0
BBX 13 18 3 0
BITMAP
03E0
0FF0
1C30
1838
3830
3830
1CE0
1FC0
0F80
3FC0
71E0
60E0
E060
C060
E0E0
E1C0
7F80
3F00
ENDCHAR
STARTCHAR nine
ENCODING 57
SWIDTH 42 0
DWIDTH 16 0
BBX 14 18 3 0
BITMAP
03E0
0FF0
1C38
3818
3018
301C
7018
7018
7038
3878
3FF8
0FB0
0030
0060
00E0
C1C0
FF80
7E00
ENDCHAR
STARTCHAR colon
ENCODING 58
SWIDTH 42 0
DWIDTH 8 0
BBX 5 13 3 0
BITMAP
38
38
00
00
00
00
00
00
00
00
00
E0
E0
ENDCHAR
STARTCHAR semicolon
ENCODING 59
SWIDTH 42 0
DWIDTH 8 0
BBX 6 18 2 -5
BITMAP
1C
1C
00
00
00
00
00
00
00
00
00
70
60
20
60
60
C0
80
ENDCHAR
STARTCHAR less
ENCODING 60
SWIDTH 42 0
DWIDTH 16 0
BBX 16 15 2 0
BITMAP
0001
0007
001E
0078
03E0
0F80
3C00
F000
3C00
1E00
0780
01E0
00F0
0038
0008
ENDCHAR
STARTCHAR equal
ENCODING 61
SWIDTH 42 0
DWIDTH 16 0
BBX 16 6 1 4
BITMAP
7FFF
7FFF
0000
0000
FFFE
FFFE
ENDCHAR
STARTCHAR greater
ENCODING 62
SWIDTH 42 0
DWIDTH 16 0
BBX 16 15 1 0
BITMAP
1000
1C00
0F00
0780
01E0
0078
003C
000F
003C
01F0
07C0
1E00
7800
E000
8000
ENDCHAR
STARTCHAR question
ENCODING 63
SWIDTH 42 0
DWIDTH 12 0
BBX 10 18 3 0
BITMAP
3F00
7F80
41C0
01C0
01C0
0180
0380
0700
0E00
1C00
3800
3000
7000
0000
0000
0000
E000
E000
ENDCHAR
STARTCHAR at
ENCODING 64
SWIDTH 42 0
DWIDTH 21 0
BBX 19 18 3 0
BITMAP
00FC00
03FF00
0F0380
1C01C0
30FCC0
21FC40
630860
460860
C61860
843840
8C70C0
8CD980
CF9F80
471E00
600000
381000
1FF000
07C000
ENDCHAR
STARTCHAR A
ENCODING 65
SWIDTH 42 0
DWIDTH 17 0
BBX 16 18 1 0
BITMAP
0038
0078
0078
00F8
01D8
019C
039C
030C
070C
060C
0C0E
0FFE
1FFE
3806
3006
7007
6007
E007
ENDCHAR
STARTCHAR B
ENCODING 66
SWIDTH 42 0
DWIDTH 15 0
BBX 13 18 2 0
BITMAP
1FE0
1FF8
1C38
1838
1838
3838
3870
38E0
3F80
3FE0
70F0
7070
7030
6070
6070
E1E0
FFE0
FF80
ENDCHAR
STARTCHAR C
ENCODING 67
SWIDTH 42 0
DWIDTH 17 0
BBX 17 18 2 0
BITMAP
00FF00
03FF80
0F0180
1E0000
3C0000
380000
700000
700000
E00000
E00000
E00000
E00000
E00000
E00000
700000
780C00
3FFC00
0FE000
ENDCHAR
STARTCHAR D
ENCODING 68
SWIDTH 42 0
DWIDTH 19 0
BBX 17 18 2 0
BITMAP
1FFC00
1FFE00
1C1F00
180780
180380
380380
380380
380380
300380
300380
700300
700700
700600
600E00
601C00
E07800
FFF000
FFC000
ENDCHAR
STARTCHAR E
ENCODING 69
SWIDTH 42 0
DWIDTH 14 0
BBX 14 18 2 0
BITMAP
0FFC
1FFC
1C00
1C00
1800
1800
3800
3800
3FE0
3FE0
3000
7000
7000
7000
6000
6000
FFE0
FFE0
ENDCHAR
STARTCHAR F
ENCODING 70
SWIDTH 42 0
DWIDTH 13 0
BBX 14 18 2 0
BITMAP
0FFC
1FFC
1C00
1C00
1800
1800
3800
3800
3FE0
3FE0
3000
7000
7000
7000
6000
6000
E000
E000
ENDCHAR
STARTCHAR G
ENCODING 71
SWIDTH 42 0
DWIDTH 18 0
BBX 16 18 3 0
BITMAP
00FE
07FF
0F03
1C00
3800
3000
7000
6000
E000
E000
E00C
E00C
E01C
E01C
701C
7838
3FF8
0FC0
ENDCHAR
STARTCHAR H
ENCODING 72
SWIDTH 42 0
DWIDTH 18 0
BBX 17 18 2 0
BITMAP
1C0380
1C0380
1C0380
180300
180300
380700
380700
380700
3FFE00
3FFE00
700600
700E00
700E00
600C00
600C00
E01C00
E01C00
E01C00
ENDCHAR
STARTCHAR I
ENCODING 73
SWIDTH 42 0
DWIDTH 7 0
BBX 6 18 2 0
BITMAP
1C
1C
1C
18
18
38
38
38
30
30
70
70
70
60
60
E0
E0
E0
ENDCHAR
STARTCHAR J
ENCODING 74
SWIDTH 42 0
DWIDTH 10 0
BBX 12 22 0 -4
BITMAP
0070
0070
0070
0060
0060
00E0
00E0
00E0
00C0
00C0
01C0
01C0
01C0
0180
0180
0380
0380
0300
0300
8600
FE00
F800
ENDCHAR
STARTCHAR K
ENCODING 75
SWIDTH 42 0
DWIDTH 16 0
BBX 16 18 2 0
BITMAP
0C07
1C0C
1C18
1C30
1860
18C0
3980
3B00
3E00
3700
3300
7180
71C0
70C0
6060
6070
E030
E018
ENDCHAR
STARTCHAR L
ENCODING 76
SWIDTH 42 0
DWIDTH 14 0
BBX 11 18 3 0
BITMAP
1C00
1C00
1C00
1800
1800
3800
3800
3800
3000
3000
7000
7000
7000
6000
6000
E000
FFE0
FFE0
ENDCHAR
STARTCHAR M
ENCODING 77
SWIDTH 42 0
DWIDTH 21 0
BBX 20 18 2 0
BITMAP
0E00F0
1E00F0
1F01E0
1F01E0
1F0360
1B07E0
3B06E0
330CC0
330CC0
3398C0
3399C0
71B1C0
61F180
61E180
61C180
61C380
C00380
C00300
ENDCHAR
STARTCHAR N
ENCODING 78
SWIDTH 42 0
DWIDTH 19 0
BBX 17 18 3 0
BITMAP
1C0180
1E0180
1E0380
1E0300
1F0300
3B0300
338300
318700
31C600
31C600
70C600
60E600
606E00
607C00
603C00
E03C00
C03C00
C01C00
ENDCHAR
STARTCHAR O
ENCODING 79
SWIDTH 42 0
DWIDTH 19 0
BBX 18 18 3 0
BITMAP
00FC00
03FF00
0F0700
1C0380
380180
3801C0
7001C0
6001C0
E00180
E00380
E00380
E00300
E00700
E00E00
701C00
787800
3FF000
0FC000
ENDCHAR
STARTCHAR P
ENCODING 80
SWIDTH 42 0
DWIDTH 14 0
BBX 14 18 2 0
BITMAP
0FF0
1FF8
1C1C
1C1C
181C
181C
3818
3838
38F0
3FE0
3F00
7000
7000
7000
6000
6000
E000
E000
ENDCHAR
STARTCHAR Q
ENCODING 81
SWIDTH 42 0
DWIDTH 19 0
BBX 18 23 3 -5
BITMAP
00FC00
03FF00
0F0700
1C0380
380180
3801C0
7001C0
6001C0
E00180
E00380
E00380
E00380
E00700
E00E00
701E00
787C00
3FF000
0FE000
007000
003C00
001F80
000F00
000300
ENDCHAR
STARTCHAR R
ENCODING 82
SWIDTH 42 0
DWIDTH 16 0
BBX 14 18 2 0
BITMAP
0FF0
1FFC
1C1C
1C1C
181C
181C
3838
3870
3FE0
3F80
31C0
71C0
70E0
60E0
6070
6070
E038
E038
ENDCHAR
STARTCHAR S
ENCODING 83
SWIDTH 42 0
DWIDTH 14 0
BBX 14 18 2 0
BITMAP
03F8
07FC
0E0C
1C00
1C00
1C00
1E00
0F00
0780
03C0
01E0
0070
0070
0070
0070
C0E0
FFC0
7F00
ENDCHAR
STARTCHAR T
ENCODING 84
SWIDTH 42 0
DWIDTH 16 0
BBX 16 18 3 0
BITMAP
FFFF
FFFF
0380
0380
0380
0300
0300
0700
0700
0700
0600
0600
0E00
0E00
0E00
0C00
0C00
1C00
ENDCHAR
STARTCHAR U
ENCODING 85
SWIDTH 42 0
DWIDTH 17 0
BBX 15 18 3 0
BITMAP
3806
380E
380E
300C
300C
700C
701C
701C
6018
6018
E018
E038
E030
E030
E070
F0E0
7FC0
3F80
ENDCHAR
STARTCHAR V
ENCODING 86
SWIDTH 42 0
DWIDTH 17 0
BBX 16 18 4 0
BITMAP
E007
E006
E00E
600C
601C
7038
7030
7070
3060
30E0
38C0
39C0
3980
1B00
1F00
1E00
1E00
1C00
ENDCHAR
STARTCHAR W
ENCODING 87
SWIDTH 42 0
DWIDTH 22 0
BBX 21 18 4 0
BITMAP
C07018
C07030
E0F030
E0F060
E0F060
E1B0E0
E1B0C0
E331C0
E33180
E63380
663300
6C3700
6C3600
7C3E00
783C00
783C00
703800
703800
ENDCHAR
STARTCHAR X
ENCODING 88
SWIDTH 42 0
DWIDTH 16 0
BBX 18 18 0 0
BITMAP
0E01C0
060380
070700
030E00
039C00
039800
01F000
01F000
00E000
01E000
03F000
037000
063800
0C3800
1C1800
381C00
700C00
E00E00
ENDCHAR
STARTCHAR Y
ENCODING 89
SWIDTH 42 0
DWIDTH 15 0
BBX 15 18 4 0
BITMAP
E00E
601C
7038
3030
3860
38C0
1DC0
1F80
0F00
0E00
0E00
0E00
0C00
0C00
1C00
1C00
1C00
1800
ENDCHAR
STARTCHAR Z
ENCODING 90
SWIDTH 42 0
DWIDTH 14 0
BBX 16 18 1 0
BITMAP
0FFF
0FFF
000E
001C
0038
0078
0070
00E0
01C0
0380
0700
0E00
1E00
3C00
3800
7000
FFF8
FFF8
ENDCHAR
STARTCHAR bracketleft
ENCODING 91
SWIDTH 42 0
DWIDTH 8 0
BBX 9 22 2 -4
BITMAP
0F80
0F80
0C00
0C00
1C00
1800
1800
1800
1800
3800
3000
3000
3000
3000
7000
6000
6000
6000
6000
C000
F800
F800
ENDCHAR
STARTCHAR backslash
ENCODING 92
SWIDTH 42 0
DWIDTH 12 0
BBX 7 22 4 -4
BITMAP
C0
C0
40
60
60
60
20
30
30
30
30
18
18
18
18
08
0C
0C
0C
04
06
06
ENDCHAR
STARTCHAR bracketright
ENCODING 93
SWIDTH 42 0
DWIDTH 8 0
BBX 9 22 1 -4
BITMAP
0F80
0F80
0180
0300
0300
0300
0300
0700
0600
0600
0600
0600
0E00
0C00
0C00
0C00
0C00
1C00
1800
1800
F800
F800
ENDCHAR
STARTCHAR asciicircum
ENCODING 94
SWIDTH 42 0
DWIDTH 16 0
BBX 14 15 2 3
BITMAP
0040
0040
00E0
01E0
01E0
0360
0730
0630
0C30
1C10
1818
3818
7018
600C
E00C
ENDCHAR
STARTCHAR underscore
ENCODING 95
SWIDTH 42 0
DWIDTH 13 0
BBX 10 2 1 -3
BITMAP
FFC0
FFC0
ENDCHAR
STARTCHAR quoteleft
ENCODING 96
SWIDTH 42 0
DWIDTH 5 0
BBX 4 6 4 12
BITMAP
30
60
40
C0
E0
E0
ENDCHAR
STARTCHAR a
ENCODING 97
SWIDTH 42 0
DWIDTH 15 0
BBX 13 13 2 0
BITMAP
03F8
07F8
1E38
3830
3030
7070
60F0
E1F0
E1E0
E360
E760
FCE0
78E0
ENDCHAR
STARTCHAR b
ENCODING 98
SWIDTH 42 0
DWIDTH 15 0
BBX 13 18 3 0
BITMAP
0C00
1C00
1C00
1800
1800
18F0
39F8
3738
3638
3C38
3C38
7830
7070
6060
60E0
63C0
FF00
FE00
ENDCHAR
STARTCHAR c
ENCODING 99
SWIDTH 42 0
DWIDTH 13 0
BBX 11 13 2 0
BITMAP
03E0
0FE0
1C20
3800
7000
6000
E000
E000
E000
E000
E0C0
7F80
3F00
ENDCHAR
STARTCHAR d
ENCODING 100
SWIDTH 42 0
DWIDTH 15 0
BBX 15 18 2 0
BITMAP
000E
000E
000C
000C
001C
01FC
07FC
0E18
1C18
3838
7038
6070
E0F0
E1F0
E3F0
E770
FE60
7860
ENDCHAR
STARTCHAR e
ENCODING 101
SWIDTH 42 0
DWIDTH 13 0
BBX 11 13 2 0
BITMAP
07C0
0FE0
18E0
30E0
60C0
6180
FF00
FC00
C000
E020
E0C0
7FC0
3F00
ENDCHAR
STARTCHAR f
ENCODING 102
SWIDTH 42 0
DWIDTH 10 0
BBX 12 25 2 -5
BITMAP
01F0
03F0
0700
0600
0E00
0C00
0C00
7F80
7F80
1800
1800
1800
3800
3800
3000
3000
3000
7000
7000
7000
6000
6000
E000
E000
E000
ENDCHAR
STARTCHAR g
ENCODING 103
SWIDTH 42 0
DWIDTH 15 0
BBX 14 18 1 -5
BITMAP
01FC
07FC
0F18
1C18
1818
3838
3038
7070
70F0
71B0
7330
3E70
3C60
0060
0060
C0C0
FF80
7E00
ENDCHAR
STARTCHAR h
ENCODING 104
SWIDTH 42 0
DWIDTH 16 0
BBX 13 18 2 0
BITMAP
0C00
0C00
1C00
1C00
1800
1870
39F8
3BB8
3738
3E38
3C38
7830
7030
7070
6070
6060
E060
E060
ENDCHAR
STARTCHAR i
ENCODING 105
SWIDTH 42 0
DWIDTH 7 0
BBX 6 18 2 0
BITMAP
1C
1C
00
00
00
18
38
38
30
30
30
70
70
60
60
60
E0
E0
ENDCHAR
STARTCHAR j
ENCODING 106
SWIDTH 42 0
DWIDTH 8 0
BBX 12 23 -2 -5
BITMAP
0070
0070
0000
0000
0000
0060
00E0
00E0
00C0
00C0
00C0
01C0
01C0
0180
0180
0380
0380
0380
0300
0700
8E00
FC00
F800
ENDCHAR
STARTCHAR k
ENCODING 107
SWIDTH 42 0
DWIDTH 14 0
BBX 13 18 2 0
BITMAP
0C00
0C00
1C00
1800
1800
1838
3860
39C0
3380
3700
3E00
7E00
7700
6300
6380
61C0
E0E0
E070
ENDCHAR
STARTCHAR l
ENCODING 108
SWIDTH 42 0
DWIDTH 7 0
BBX 6 18 3 0
BITMAP
0C
1C
1C
18
18
18
38
38
30
30
30
70
70
60
60
60
E0
E0
ENDCHAR
STARTCHAR m
ENCODING 109
SWIDTH 42 0
DWIDTH 23 0
BBX 21 13 2 0
BITMAP
187070
19F9F8
3BBBB8
373F38
3E3E38
3C3C30
383830
707830
707070
606070
606060
606060
C0E0E0
ENDCHAR
STARTCHAR n
ENCODING 110
SWIDTH 42 0
DWIDTH 16 0
BBX 13 13 2 0
BITMAP
1870
39F8
3BB8
3738
3E38
3C38
7830
7030
7070
6070
6060
E060
E060
ENDCHAR
STARTCHAR o
ENCODING 111
SWIDTH 42 0
DWIDTH 14 0
BBX 12 13 2 0
BITMAP
07C0
0FE0
1C70
3030
7030
6030
E030
E070
E060
E0E0
E1C0
7F80
3E00
ENDCHAR
STARTCHAR p
ENCODING 112
SWIDTH 42 0
DWIDTH 15 0
BBX 14 18 2 -5
BITMAP
1C78
1CFC
1B9C
1F1C
1E1C
3E1C
3C18
3838
3030
3070
71E0
7F80
7F00
6000
6000
E000
E000
C000
ENDCHAR
STARTCHAR q
ENCODING 113
SWIDTH 42 0
DWIDTH 15 0
BBX 13 18 2 -5
BITMAP
03F8
07F8
1E38
3830
3030
7070
60F0
E1F0
E1E0
E360
E760
FCE0
78E0
00C0
00C0
00C0
01C0
01C0
ENDCHAR
STARTCHAR r
ENCODING 114
SWIDTH 42 0
DWIDTH 12 0
BBX 11 13 3 0
BITMAP
38E0
39E0
3300
3600
3C00
7C00
7800
7000
6000
6000
E000
E000
E000
ENDCHAR
STARTCHAR s
ENCODING 115
SWIDTH 42 0
DWIDTH 12 0
BBX 11 13 2 0
BITMAP
07C0
1FE0
1860
3800
1C00
1E00
0F00
0780
0380
0180
C380
FF80
7E00
ENDCHAR
STARTCHAR t
ENCODING 116
SWIDTH 42 0
DWIDTH 10 0
BBX 8 16 3 0
BITMAP
18
18
18
FF
FF
30
30
30
70
70
60
60
E0
60
7C
38
ENDCHAR
STARTCHAR u
ENCODING 117
SWIDTH 42 0
DWIDTH 16 0
BBX 13 13 3 0
BITMAP
3018
3038
3030
3030
6070
6070
60F0
61E0
E3E0
C760
EEE0
FCE0
70C0
ENDCHAR
STARTCHAR v
ENCODING 118
SWIDTH 42 0
DWIDTH 14 0
BBX 12 13 4 0
BITMAP
C070
C060
E0E0
E0C0
6180
6380
6300
6600
6600
6C00
7C00
7800
3000
ENDCHAR
STARTCHAR w
ENCODING 119
SWIDTH 42 0
DWIDTH 20 0
BBX 18 13 3 0
BITMAP
C0C0C0
C1C180
C1C180
E3C300
E3C300
666600
666E00
6C6C00
6C7C00
787800
787800
707000
707000
ENDCHAR
STARTCHAR x
ENCODING 120
SWIDTH 42 0
DWIDTH 14 0
BBX 15 13 0 0
BITMAP
1C0E
0E1C
0638
0770
03E0
03C0
0380
07C0
0EC0
1CE0
3860
7070
E038
ENDCHAR
STARTCHAR y
ENCODING 121
SWIDTH 42 0
DWIDTH 14 0
BBX 14 18 2 -5
BITMAP
601C
7018
7030
7070
3060
30C0
31C0
3980
3B80
3B00
1E00
1E00
1C00
1800
3800
3000
6000
E000
ENDCHAR
STARTCHAR z
ENCODING 122
SWIDTH 42 0
DWIDTH 13 0
BBX 13 13 1 0
BITMAP
1FF8
1FF8
0070
00E0
01C0
0380
0700
0E00
1C00
3800
7000
FFE0
FFE0
ENDCHAR
STARTCHAR braceleft
ENCODING 123
SWIDTH 42 0
DWIDTH 8 0
BBX 9 22 2 -4
BITMAP
0380
0F00
0E00
0C00
0C00
1C00
1C00
1C00
1800
3800
F000
E000
3000
3000
3000
7000
6000
6000
C000
C000
7000
3000
ENDCHAR
STARTCHAR bar
ENCODING 124
SWIDTH 42 0
DWIDTH 6 0
BBX 6 22 1 -4
BITMAP
0C
0C
0C
08
18
18
18
18
10
30
30
30
30
20
60
60
60
60
40
C0
C0
C0
ENDCHAR
STARTCHAR braceright
ENCODING 125
SWIDTH 42 0
DWIDTH 8 0
BBX 9 22 1 -4
BITMAP
0E00
0F00
0300
0300
0300
0700
0600
0600
0600
0600
0380
0F00
0C00
1C00
1800
1800
1800
1800
3800
F000
F000
C000
ENDCHAR
STARTCHAR asciitilde
ENCODING 126
SWIDTH 42 0
DWIDTH 16 0
BBX 15 5 2 5
BITMAP
3C06
7F06
638C
C1FC
C078
ENDCHAR
STARTCHAR exclamdown
ENCODING 161
SWIDTH 42 0
DWIDTH 8 0
BBX 6 18 2 -5
BITMAP
1C
1C
00
00
00
18
10
30
30
30
30
70
60
60
60
E0
E0
E0
ENDCHAR
STARTCHAR cent
ENCODING 162
SWIDTH 42 0
DWIDTH 16 0
BBX 12 18 4 0
BITMAP
0080
0180
03F0
0FF0
1D00
3900
7300
6200
E200
E200
E600
E400
E440
E4C0
7FC0
3F00
0800
0800
ENDCHAR
STARTCHAR sterling
ENCODING 163
SWIDTH 42 0
DWIDTH 16 0
BBX 14 18 3 0
BITMAP
00FC
01FC
0384
0300
0700
0600
0600
0E00
3F80
3F80
0C00
0C00
0C00
1C00
1800
3000
FFE0
FFC0
ENDCHAR
STARTCHAR currency
ENCODING 164
SWIDTH 42 0
DWIDTH 16 0
BBX 18 16 1 1
BITMAP
100180
3803C0
1DE300
0FF600
071C00
0C0C00
0C0C00
180C00
180C00
180C00
181800
0C3000
1FF800
73DC00
E00E00
400400
ENDCHAR
STARTCHAR yen
ENCODING 165
SWIDTH 42 0
DWIDTH 16 0
BBX 15 18 4 0
BITMAP
E00E
701C
3038
3830
3860
1CC0
1D80
0F00
0F00
7FE0
7FC0
0E00
FFC0
FFC0
0C00
1C00
1C00
1800
ENDCHAR
STARTCHAR brokenbar
ENCODING 166
SWIDTH 42 0
DWIDTH 6 0
BBX 6 22 1 -4
BITMAP
0C
0C
0C
18
18
18
18
18
30
00
00
00
00
30
60
60
60
60
40
C0
C0
C0
ENDCHAR
STARTCHAR section
ENCODING 167
SWIDTH 42 0
DWIDTH 16 0
BBX 13 23 2 -5
BITMAP
03F8
07F8
0E08
1C00
1800
1C00
0E00
0F00
1FC0
38E0
3070
3030
3830
3C70
1FE0
07C0
01E0
0060
0060
00E0
C1C0
FFC0
7F00
ENDCHAR
STARTCHAR dieresis
ENCODING 168
SWIDTH 42 0
DWIDTH 14 0
BBX 7 2 7 16
BITMAP
C6
C6
ENDCHAR
STARTCHAR copyright
ENCODING 169
SWIDTH 42 0
DWIDTH 21 0
BBX 19 18 3 0
BITMAP
03F000
0FFE00
1C0F00
300380
60F980
41FCC0
C38840
C60040
860040
8C0060
CC0040
C61040
47F0C0
63E180
300380
1C0F00
0FFE00
03F000
ENDCHAR
STARTCHAR ordfeminine
ENCODING 170
SWIDTH 42 0
DWIDTH 10 0
BBX 10 10 3 8
BITMAP
0E00
3FC0
3180
6180
6380
C780
CF00
DB00
F300
6700
ENDCHAR
STARTCHAR guillemotleft
ENCODING 171
SWIDTH 42 0
DWIDTH 13 0
BBX 12 11 2 1
BITMAP
0420
0E70
1CE0
39C0
7380
E700
6300
7380
3180
18C0
1080
ENDCHAR
STARTCHAR logicalnot
ENCODING 172
SWIDTH 42 0
DWIDTH 16 0
BBX 15 6 2 4
BITMAP
FFFE
FFFE
0006
0004
000C
000C
ENDCHAR
STARTCHAR hyphen
ENCODING 173
SWIDTH 42 0
DWIDTH 8 0
BBX 6 2 2 7
BITMAP
FC
FC
ENDCHAR
STARTCHAR registered
ENCODING 174
SWIDTH 42 0
DWIDTH 16 0
BBX 9 11 6 7
BITMAP
1E00
7F00
6380
DF80
9280
9C80
9C80
F480
6380
7F00
1E00
ENDCHAR
STARTCHAR macron
ENCODING 175
SWIDTH 42 0
DWIDTH 14 0
BBX 7 2 7 16
BITMAP
FE
FE
ENDCHAR
STARTCHAR degree
ENCODING 176
SWIDTH 42 0
DWIDTH 7 0
BBX 4 4 5 14
BITMAP
70
90
90
70
ENDCHAR
STARTCHAR plusminus
ENCODING 177
SWIDTH 42 0
DWIDTH 16 0
BBX 16 15 1 0
BITMAP
0060
0040
00C0
00C0
00C0
3FFF
3FFF
0080
0180
0180
0180
0000
0000
FFFC
FFFC
ENDCHAR
STARTCHAR twosuperior
ENCODING 178
SWIDTH 42 0
DWIDTH 9 0
BBX 8 11 -13 7
BITMAP
1E
3F
23
03
06
0E
18
30
60
FC
FC
ENDCHAR
STARTCHAR threesuperior
ENCODING 179
SWIDTH 42 0
DWIDTH 9 0
BBX 8 11 -13 7
BITMAP
3E
3F
03
02
3C
3C
06
06
06
FC
F8
ENDCHAR
STARTCHAR acute
ENCODING 180
SWIDTH 42 0
DWIDTH 14 0
BBX 6 4 9 14
BITMAP
1C
30
60
C0
ENDCHAR
STARTCHAR mu
ENCODING 181
SWIDTH 42 0
DWIDTH 16 0
BBX 14 17 2 -4
BITMAP
1C1C
181C
1818
1818
3818
3838
3038
3070
30F0
71B0
7330
7F70
7C60
6000
E000
E000
C000
ENDCHAR
STARTCHAR paragraph
ENCODING 182
SWIDTH 42 0
DWIDTH 16 0
BBX 11 22 4 -4
BITMAP
3FE0
7FE0
FE60
FE40
FE40
FEC0
7EC0
7CC0
1C80
0C80
0C80
0D80
0980
0900
1900
1900
1B00
1300
1200
3200
3200
3600
ENDCHAR
STARTCHAR periodcentered
ENCODING 183
SWIDTH 42 0
DWIDTH 16 0
BBX 4 3 7 6
BITMAP
70
F0
E0
ENDCHAR
STARTCHAR cedilla
ENCODING 184
SWIDTH 42 0
DWIDTH 14 0
BBX 4 5 5 -5
BITMAP
20
60
30
30
E0
ENDCHAR
STARTCHAR onesuperior
ENCODING 185
SWIDTH 42 0
DWIDTH 9 0
BBX 4 11 -15 7
BITMAP
F0
F0
20
20
20
60
60
40
40
C0
C0
ENDCHAR
STARTCHAR ordmasculine
ENCODING 186
SWIDTH 42 0
DWIDTH 10 0
BBX 10 10 3 8
BITMAP
0F80
1F80
39C0
71C0
61C0
C180
C380
E700
FE00
7800
ENDCHAR
STARTCHAR guillemotright
ENCODING 187
SWIDTH 42 0
DWIDTH 13 0
BBX 12 11 1 1
BITMAP
3180
3180
18C0
1CE0
0C60
0E70
1CE0
39C0
7380
E700
4200
ENDCHAR
STARTCHAR onequarter
ENCODING 188
SWIDTH 42 0
DWIDTH 22 0
BBX 19 18 10 0
BITMAP
F000E0
F001C0
200380
200700
200E00
601C00
601800
4030C0
4061C0
C0C380
C18680
030D80
071180
0E3FC0
1C3FC0
380100
700300
E00300
ENDCHAR
STARTCHAR onehalf
ENCODING 189
SWIDTH 42 0
DWIDTH 22 0
BBX 19 18 10 0
BITMAP
F000E0
F001C0
200380
200700
200E00
601C00
601800
403780
406FC0
C0C8C0
C180C0
030180
070380
0E0600
1C0C00
381800
703F00
E03F00
ENDCHAR
STARTCHAR threequarters
ENCODING 190
SWIDTH 42 0
DWIDTH 22 0
BBX 21 18 12 0
BITMAP
3E0038
3F0070
0300E0
0201C0
3C0380
3C0700
060600
060C30
061870
FC30E0
F861A0
00C360
01C460
038FF0
070FF0
0E0040
1C00C0
3800C0
ENDCHAR
STARTCHAR questiondown
ENCODING 191
SWIDTH 42 0
DWIDTH 12 0
BBX 10 18 1 -5
BITMAP
01C0
01C0
0000
0000
0000
0380
0300
0700
0E00
1C00
3800
7000
E000
E000
E000
F080
7F80
3F00
ENDCHAR
STARTCHAR Agrave
ENCODING 192
SWIDTH 42 0
DWIDTH 17 0
BBX 16 23 1 0
BITMAP
0070
0030
0030
0018
0000
0038
0078
0078
00F8
01D8
019C
039C
030C
070C
060C
0C0E
0FFE
1FFE
3806
3006
7007
6007
E007
ENDCHAR
STARTCHAR Aacute
ENCODING 193
SWIDTH 42 0
DWIDTH 17 0
BBX 16 23 1 0
BITMAP
0007
000C
0018
0030
0000
0038
0078
0078
00F8
01D8
019C
039C
030C
070C
060C
0C0E
0FFE
1FFE
3806
3006
7007
6007
E007
ENDCHAR
STARTCHAR Acircumflex
ENCODING 194
SWIDTH 42 0
DWIDTH 17 0
BBX 16 23 1 0
BITMAP
003C
007C
00EC
01C6
0000
0038
0078
0078
00F8
01D8
019C
039C
030C
070C
060C
0C0E
0FFE
1FFE
3806
3006
7007
6007
E007
ENDCHAR
STARTCHAR Atilde
ENCODING 195
SWIDTH 42 0
DWIDTH 17 0
BBX 16 21 1 0
BITMAP
007B
00DE
0000
0038
0078
0078
00F8
01D8
019C
039C
030C
070C
060C
0C0E
0FFE
1FFE
3806
3006
7007
6007
E007
ENDCHAR
STARTCHAR Adieresis
ENCODING 196
SWIDTH 42 0
DWIDTH 17 0
BBX 16 21 1 0
BITMAP
00C6
00C6
0000
0038
0078
0078
00F8
01D8
019C
039C
030C
070C
060C
0C0E
0FFE
1FFE
3806
3006
7007
6007
E007
ENDCHAR
STARTCHAR Aring
ENCODING 197
SWIDTH 42 0
DWIDTH 17 0
BBX 16 23 1 0
BITMAP
0018
0024
0024
0018
0000
0038
0078
0078
00F8
01D8
019C
039C
030C
070C
060C
0C0E
0FFE
1FFE
3806
3006
7007
6007
E007
ENDCHAR
STARTCHAR AE
ENCODING 198
SWIDTH 42 0
DWIDTH 22 0
BBX 25 18 0 0
BITMAP
0003FF80
0007FF80
000F8000
001F8000
003B0000
00330000
00770000
00E7FC00
01C7FC00
01860000
03060000
07FE0000
0FFE0000
1C0E0000
180C0000
380C0000
701FFC00
E01FFC00
ENDCHAR
STARTCHAR Ccedilla
ENCODING 199
SWIDTH 42 0
DWIDTH 17 0
BBX 17 23 2 -5
BITMAP
00FF00
03FF80
0F0180
1E0000
3C0000
380000
700000
700000
E00000
E00000
E00000
E00000
E00000
E00000
700000
780C00
3FFC00
0FE000
020000
060000
030000
030000
0E0000
ENDCHAR
STARTCHAR Egrave
ENCODING 200
SWIDTH 42 0
DWIDTH 14 0
BBX 14 23 2 0
BITMAP
0380
0180
0180
00C0
0000
0FFC
1FFC
1C00
1C00
1800
1800
3800
3800
3FE0
3FE0
3000
7000
7000
7000
6000
6000
FFE0
FFE0
ENDCHAR
STARTCHAR Eacute
ENCODING 201
SWIDTH 42 0
DWIDTH 14 0
BBX 14 23 2 0
BITMAP
0070
00C0
0180
0300
0000
0FFC
1FFC
1C00
1C00
1800
1800
3800
3800
3FE0
3FE0
3000
7000
7000
7000
6000
6000
FFE0
FFE0
ENDCHAR
STARTCHAR Ecircumflex
ENCODING 202
SWIDTH 42 0
DWIDTH 14 0
BBX 14 23 2 0
BITMAP
01E0
03E0
0760
0E30
0000
0FFC
1FFC
1C00
1C00
1800
1800
3800
3800
3FE0
3FE0
3000
7000
7000
7000
6000
6000
FFE0
FFE0
ENDCHAR
STARTCHAR Edieresis
ENCODING 203
SWIDTH 42 0
DWIDTH 14 0
BBX 14 21 2 0
BITMAP
0630
0630
0000
0FFC
1FFC
1C00
1C00
1800
1800
3800
3800
3FE0
3FE0
3000
7000
7000
7000
6000
6000
FFE0
FFE0
ENDCHAR
STARTCHAR Igrave
ENCODING 204
SWIDTH 42 0
DWIDTH 7 0
BBX 7 23 2 0
BITMAP
1C
0C
0C
06
00
1C
1C
1C
18
18
38
38
38
30
30
70
70
70
60
60
E0
E0
E0
ENDCHAR
STARTCHAR Iacute
ENCODING 205
SWIDTH 42 0
DWIDTH 7 0
BBX 9 23 2 0
BITMAP
0380
0600
0C00
1800
0000
1C00
1C00
1C00
1800
1800
3800
3800
3800
3000
3000
7000
7000
7000
6000
6000
E000
E000
E000
ENDCHAR
STARTCHAR Icircumflex
ENCODING 206
SWIDTH 42 0
DWIDTH 7 0
BBX 9 23 2 0
BITMAP
0F00
1F00
3B00
7180
0000
1C00
1C00
1C00
1800
1800
3800
3800
3800
3000
3000
7000
7000
7000
6000
6000
E000
E000
E000
ENDCHAR
STARTCHAR Idieresis
ENCODING 207
SWIDTH 42 0
DWIDTH 7 0
BBX 8 21 2 0
BITMAP
63
63
00
1C
1C
1C
18
18
38
38
38
30
30
70
70
70
60
60
E0
E0
E0
ENDCHAR
STARTCHAR Eth
ENCODING 208
SWIDTH 42 0
DWIDTH 19 0
BBX 18 18 1 0
BITMAP
0FFE00
0FFF00
0E0F80
0C03C0
0C01C0
0C01C0
1C01C0
1C01C0
FFC1C0
FF81C0
180180
380380
380300
300700
300E00
303C00
7FF800
7FE000
ENDCHAR
STARTCHAR Ntilde
ENCODING 209
SWIDTH 42 0
DWIDTH 19 0
BBX 17 21 3 0
BITMAP
00F600
01BC00
000000
1C0180
1E0180
1E0380
1E0300
1F0300
3B0300
338300
318700
31C600
31C600
70C600
60E600
606E00
607C00
603C00
E03C00
C03C00
C01C00
ENDCHAR
STARTCHAR Ograve
ENCODING 210
SWIDTH 42 0
DWIDTH 19 0
BBX 18 23 3 0
BITMAP
00E000
006000
006000
003000
000000
00FC00
03FF00
0F0700
1C0380
380180
3801C0
7001C0
6001C0
E00180
E00380
E00380
E00300
E00700
E00E00
701C00
787800
3FF000
0FC000
ENDCHAR
STARTCHAR Oacute
ENCODING 211
SWIDTH 42 0
DWIDTH 19 0
BBX 18 23 3 0
BITMAP
000E00
001800
003000
006000
000000
00FC00
03FF00
0F0700
1C0380
380180
3801C0
7001C0
6001C0
E00180
E00380
E00380
E00300
E00700
E00E00
701C00
787800
3FF000
0FC000
ENDCHAR
STARTCHAR Ocircumflex
ENCODING 212
SWIDTH 42 0
DWIDTH 19 0
BBX 18 23 3 0
BITMAP
007800
00F800
01D800
038C00
000000
00FC00
03FF00
0F0700
1C0380
380180
3801C0
7001C0
6001C0
E00180
E00380
E00380
E00300
E00700
E00E00
701C00
787800
3FF000
0FC000
ENDCHAR
STARTCHAR Otilde
ENCODING 213
SWIDTH 42 0
DWIDTH 19 0
BBX 18 21 3 0
BITMAP
00F600
01BC00
000000
00FC00
03FF00
0F0700
1C0380
380180
3801C0
7001C0
6001C0
E00180
E00380
E00380
E00300
E00700
E00E00
701C00
787800
3FF000
0FC000
ENDCHAR
STARTCHAR Odieresis
ENCODING 214
SWIDTH 42 0
DWIDTH 19 0
BBX 18 21 3 0
BITMAP
018C00
018C00
000000
00FC00
03FF00
0F0700
1C0380
380180
3801C0
7001C0
6001C0
E00180
E00380
E00380
E00300
E00700
E00E00
701C00
787800
3FF000
0FC000
ENDCHAR
STARTCHAR multiply
ENCODING 215
SWIDTH 42 0
DWIDTH 16 0
BBX 17 15 1 0
BITMAP
300100
180380
1C0700
0E0E00
061800
037000
01E000
01C000
03E000
076000
0C3000
383800
701C00
E00C00
400600
ENDCHAR
STARTCHAR Oslash
ENCODING 216
SWIDTH 42 0
DWIDTH 19 0
BBX 21 18 4 0
BITMAP
007E38
01FFE0
0783C0
0E01C0
1C03C0
1C06E0
380CE0
3018E0
7030C0
7061C0
70C1C0
718180
730380
760700
3C0E00
3C3C00
3FF800
E7E000
ENDCHAR
STARTCHAR Ugrave
ENCODING 217
SWIDTH 42 0
DWIDTH 17 0
BBX 15 23 3 0
BITMAP
01C0
00C0
00C0
0060
0000
3806
380E
380E
300C
300C
700C
701C
701C
6018
6018
E018
E038
E030
E030
E070
F0E0
7FC0
3F80
ENDCHAR
STARTCHAR Uacute
ENCODING 218
SWIDTH 42 0
DWIDTH 17 0
BBX 15 23 3 0
BITMAP
0038
0060
00C0
0180
0000
3806
380E
380E
300C
300C
700C
701C
701C
6018
6018
E018
E038
E030
E030
E070
F0E0
7FC0
3F80
ENDCHAR
STARTCHAR Ucircumflex
ENCODING 219
SWIDTH 42 0
DWIDTH 17 0
BBX 15 23 3 0
BITMAP
00F0
01F0
03B0
0718
0000
3806
380E
380E
300C
300C
700C
701C
701C
6018
6018
E018
E038
E030
E030
E070
F0E0
7FC0
3F80
ENDCHAR
STARTCHAR Udieresis
ENCODING 220
SWIDTH 42 0
DWIDTH 17 0
BBX 15 21 3 0
BITMAP
0630
0630
0000
3806
380E
380E
300C
300C
700C
701C
701C
6018
6018
E018
E038
E030
E030
E070
F0E0
7FC0
3F80
ENDCHAR
STARTCHAR Yacute
ENCODING 221
SWIDTH 42 0
DWIDTH 15 0
BBX 15 23 4 0
BITMAP
0070
00C0
0180
0300
0000
E00E
601C
7038
3030
3860
38C0
1DC0
1F80
0F00
0E00
0E00
0E00
0C00
0C00
1C00
1C00
1C00
1800
ENDCHAR
STARTCHAR Thorn
ENCODING 222
SWIDTH 42 0
DWIDTH 14 0
BBX 13 18 2 0
BITMAP
1C00
1C00
1C00
1C00
1FE0
3FF8
3838
3838
3038
3038
7070
70E0
7FC0
7F00
6000
E000
E000
E000
ENDCHAR
STARTCHAR germandbls
ENCODING 223
SWIDTH 42 0
DWIDTH 15 0
BBX 13 25 2 -5
BITMAP
01E0
07F0
0630
0C30
0C30
0C60
1CC0
1D80
1B80
1B80
1B80
19C0
38E0
3870
3038
3018
3018
7238
77F0
63E0
6000
6000
E000
E000
C000
ENDCHAR
STARTCHAR agrave
ENCODING 224
SWIDTH 42 0
DWIDTH 15 0
BBX 13 18 2 0
BITMAP
01C0
00C0
00C0
0060
0000
03F8
07F8
1E38
3830
3030
7070
60F0
E1F0
E1E0
E360
E760
FCE0
78E0
ENDCHAR
STARTCHAR aacute
ENCODING 225
SWIDTH 42 0
DWIDTH 15 0
BBX 13 18 2 0
BITMAP
0038
0060
00C0
0180
0000
03F8
07F8
1E38
3830
3030
7070
60F0
E1F0
E1E0
E360
E760
FCE0
78E0
ENDCHAR
STARTCHAR acircumflex
ENCODING 226
SWIDTH 42 0
DWIDTH 15 0
BBX 13 18 2 0
BITMAP
00F0
01F0
03B0
0718
0000
03F8
07F8
1E38
3830
3030
7070
60F0
E1F0
E1E0
E360
E760
FCE0
78E0
ENDCHAR
STARTCHAR atilde
ENCODING 227
SWIDTH 42 0
DWIDTH 15 0
BBX 13 16 2 0
BITMAP
03D8
06F0
0000
03F8
07F8
1E38
3830
3030
7070
60F0
E1F0
E1E0
E360
E760
FCE0
78E0
ENDCHAR
STARTCHAR adieresis
ENCODING 228
SWIDTH 42 0
DWIDTH 15 0
BBX 13 16 2 0
BITMAP
0318
0318
0000
03F8
07F8
1E38
3830
3030
7070
60F0
E1F0
E1E0
E360
E760
FCE0
78E0
ENDCHAR
STARTCHAR aring
ENCODING 229
SWIDTH 42 0
DWIDTH 15 0
BBX 13 18 2 0
BITMAP
00C0
0120
0120
00C0
0000
03F8
07F8
1E38
3830
3030
7070
60F0
E1F0
E1E0
E360
E760
FCE0
78E0
ENDCHAR
STARTCHAR ae
ENCODING 230
SWIDTH 42 0
DWIDTH 22 0
BBX 20 13 2 0
BITMAP
03FBE0
07FFF0
1E1E70
383830
303870
7070E0
60FF80
E0FE00
E1F000
E3F010
E73070
FE3FE0
781F80
ENDCHAR
STARTCHAR ccedilla
ENCODING 231
SWIDTH 42 0
DWIDTH 13 0
BBX 11 18 2 -5
BITMAP
03E0
0FE0
1C20
3800
7000
6000
E000
E000
E000
E000
E0C0
7F80
3F00
0800
1800
0C00
0C00
3800
ENDCHAR
STARTCHAR egrave
ENCODING 232
SWIDTH 42 0
DWIDTH 13 0
BBX 11 18 2 0
BITMAP
0380
0180
0180
00C0
0000
07C0
0FE0
18E0
30E0
60C0
6180
FF00
FC00
C000
E020
E0C0
7FC0
3F00
ENDCHAR
STARTCHAR eacute
ENCODING 233
SWIDTH 42 0
DWIDTH 13 0
BBX 12 18 2 0
BITMAP
0070
00C0
0180
0300
0000
07C0
0FE0
18E0
30E0
60C0
6180
FF00
FC00
C000
E020
E0C0
7FC0
3F00
ENDCHAR
STARTCHAR ecircumflex
ENCODING 234
SWIDTH 42 0
DWIDTH 13 0
BBX 12 18 2 0
BITMAP
01E0
03E0
0760
0E30
0000
07C0
0FE0
18E0
30E0
60C0
6180
FF00
FC00
C000
E020
E0C0
7FC0
3F00
ENDCHAR
STARTCHAR edieresis
ENCODING 235
SWIDTH 42 0
DWIDTH 13 0
BBX 12 16 2 0
BITMAP
0630
0630
0000
07C0
0FE0
18E0
30E0
60C0
6180
FF00
FC00
C000
E020
E0C0
7FC0
3F00
ENDCHAR
STARTCHAR igrave
ENCODING 236
SWIDTH 42 0
DWIDTH 7 0
BBX 7 18 2 0
BITMAP
1C
0C
0C
06
00
18
38
38
30
30
30
70
70
60
60
60
E0
E0
ENDCHAR
STARTCHAR iacute
ENCODING 237
SWIDTH 42 0
DWIDTH 7 0
BBX 9 18 2 0
BITMAP
0380
0600
0C00
1800
0000
1800
3800
3800
3000
3000
3000
7000
7000
6000
6000
6000
E000
E000
ENDCHAR
STARTCHAR icircumflex
ENCODING 238
SWIDTH 42 0
DWIDTH 7 0
BBX 9 18 2 0
BITMAP
0F00
1F00
3B00
7180
0000
1800
3800
3800
3000
3000
3000
7000
7000
6000
6000
6000
E000
E000
ENDCHAR
STARTCHAR idieresis
ENCODING 239
SWIDTH 42 0
DWIDTH 7 0
BBX 8 16 2 0
BITMAP
63
63
00
18
38
38
30
30
30
70
70
60
60
60
E0
E0
ENDCHAR
STARTCHAR eth
ENCODING 240
SWIDTH 42 0
DWIDTH 14 0
BBX 12 18 2 0
BITMAP
1FE0
3FE0
03C0
0FE0
0660
07F0
1FF0
3C70
3030
7030
6030
E030
E070
E060
E0E0
F1C0
7F80
3E00
ENDCHAR
STARTCHAR ntilde
ENCODING 241
SWIDTH 42 0
DWIDTH 16 0
BBX 13 16 2 0
BITMAP
03D8
06F0
0000
1870
39F8
3BB8
3738
3E38
3C38
7830
7030
7070
6070
6060
E060
E060
ENDCHAR
STARTCHAR ograve
ENCODING 242
SWIDTH 42 0
DWIDTH 14 0
BBX 12 18 2 0
BITMAP
0380
0180
0180
00C0
0000
07C0
0FE0
1C70
3030
7030
6030
E030
E070
E060
E0E0
E1C0
7F80
3E00
ENDCHAR
STARTCHAR oacute
ENCODING 243
SWIDTH 42 0
DWIDTH 14 0
BBX 13 18 2 0
BITMAP
0038
0060
00C0
0180
0000
07C0
0FE0
1C70
3030
7030
6030
E030
E070
E060
E0E0
E1C0
7F80
3E00
ENDCHAR
STARTCHAR ocircumflex
ENCODING 244
SWIDTH 42 0
DWIDTH 14 0
BBX 12 18 2 0
BITMAP
01E0
03E0
0760
0E30
0000
07C0
0FE0
1C70
3030
7030
6030
E030
E070
E060
E0E0
E1C0
7F80
3E00
ENDCHAR
STARTCHAR otilde
ENCODING 245
SWIDTH 42 0
DWIDTH 14 0
BBX 13 16 2 0
BITMAP
03D8
06F0
0000
07C0
0FE0
1C70
3030
7030
6030
E030
E070
E060
E0E0
E1C0
7F80
3E00
ENDCHAR
STARTCHAR odieresis
ENCODING 246
SWIDTH 42 0
DWIDTH 14 0
BBX 12 16 2 0
BITMAP
0630
0630
0000
07C0
0FE0
1C70
3030
7030
6030
E030
E070
E060
E0E0
E1C0
7F80
3E00
ENDCHAR
STARTCHAR divide
ENCODING 247
SWIDTH 42 0
DWIDTH 16 0
BBX 15 13 2 0
BITMAP
01C0
01C0
0000
0000
0000
0000
FFFE
FFFE
0000
0000
0000
0700
0700
ENDCHAR
STARTCHAR oslash
ENCODING 248
SWIDTH 42 0
DWIDTH 14 0
BBX 15 13 3 0
BITMAP
03EE
07FC
0E38
1878
38F8
31D8
7398
7738
7E30
7C70
78E0
7FC0
FF00
ENDCHAR
STARTCHAR ugrave
ENCODING 249
SWIDTH 42 0
DWIDTH 16 0
BBX 13 18 3 0
BITMAP
0380
0180
0180
00C0
0000
3018
3038
3030
3030
6070
6070
60F0
61E0
E3E0
C760
EEE0
FCE0
70C0
ENDCHAR
STARTCHAR uacute
ENCODING 250
SWIDTH 42 0
DWIDTH 16 0
BBX 13 18 3 0
BITMAP
0038
0060
00C0
0180
0000
3018
3038
3030
3030
6070
6070
60F0
61E0
E3E0
C760
EEE0
FCE0
70C0
ENDCHAR
STARTCHAR ucircumflex
ENCODING 251
SWIDTH 42 0
DWIDTH 16 0
BBX 13 18 3 0
BITMAP
01E0
03E0
0760
0E30
0000
3018
3038
3030
3030
6070
6070
60F0
61E0
E3E0
C760
EEE0
FCE0
70C0
ENDCHAR
STARTCHAR udieresis
ENCODING 252
SWIDTH 42 0
DWIDTH 16 0
BBX 13 16 3 0
BITMAP
0630
0630
0000
3018
3038
3030
3030
6070
6070
60F0
61E0
E3E0
C760
EEE0
FCE0
70C0
ENDCHAR
STARTCHAR yacute
ENCODING 253
SWIDTH 42 0
DWIDTH 14 0
BBX 14 23 2 -5
BITMAP
0070
00C0
0180
0300
0000
601C
7018
7030
7070
3060
30C0
31C0
3980
3B80
3B00
1E00
1E00
1C00
1800
3800
3000
6000
E000
ENDCHAR
STARTCHAR thorn
ENCODING 254
SWIDTH 42 0
DWIDTH 15 0
BBX 14 22 2 -5
BITMAP
0E00
0C00
0C00
0C00
1C78
1DFC
1B9C
1F1C
1E1C
3E1C
3C18
3838
3030
3070
71E0
7F80
7F00
6000
6000
E000
E000
C000
ENDCHAR
STARTCHAR ydieresis
ENCODING 255
SWIDTH 42 0
DWIDTH 14 0
BBX 14 21 2 -5
BITMAP
0630
0630
0000
601C
7018
7030
7070
3060
30C0
31C0
3980
3B80
3B00
1E00
1E00
1C00
1800
3800
3000
6000
E000
ENDCHAR
STARTCHAR fl
ENCODING -1
SWIDTH 42 0
DWIDTH 16 0
BBX 16 25 2 -5
BITMAP
00FF
03FF
0707
0606
0E06
0C0E
0C0E
7FCE
7F8C
1C0C
180C
181C
181C
3818
3818
3018
3038
3038
7030
7030
6000
6000
6000
E000
E000
ENDCHAR
STARTCHAR endash
ENCODING -1
SWIDTH 42 0
DWIDTH 13 0
BBX 11 2 2 6
BITMAP
FFE0
FFE0
ENDCHAR
STARTCHAR dagger
ENCODING -1
SWIDTH 42 0
DWIDTH 16 0
BBX 11 22 5 -4
BITMAP
0300
0300
0700
0600
0600
0600
FFE0
FFE0
0C00
0C00
0C00
0C00
1800
1800
1800
1800
1800
3800
3000
3000
3000
7000
ENDCHAR
STARTCHAR Zcaron
ENCODING -1
SWIDTH 42 0
DWIDTH 14 0
BBX 16 23 1 0
BITMAP
018E
00DC
00D8
0070
0000
0FFF
0FFF
000E
001C
0038
0078
0070
00E0
01C0
0380
0700
0E00
1E00
3C00
3800
7000
FFF8
FFF8
ENDCHAR
STARTCHAR oe
ENCODING -1
SWIDTH 42 0
DWIDTH 22 0
BBX 20 13 2 0
BITMAP
07C3E0
0FE7F0
1C7C70
307870
703860
6030E0
E07F80
E07E00
E07000
E0F010
E1F070
7FBFE0
3E1F80
ENDCHAR
STARTCHAR Ydieresis
ENCODING -1
SWIDTH 42 0
DWIDTH 15 0
BBX 15 21 4 0
BITMAP
0C60
0C60
0000
E00E
601C
7038
3030
3860
38C0
1DC0
1F80
0F00
0E00
0E00
0E00
0C00
0C00
1C00
1C00
1C00
1800
ENDCHAR
STARTCHAR dotlessi
ENCODING -1
SWIDTH 42 0
DWIDTH 7 0
BBX 5 13 2 0
BITMAP
18
38
38
30
30
30
70
70
60
60
60
E0
E0
ENDCHAR
STARTCHAR lslash
ENCODING -1
SWIDTH 42 0
DWIDTH 7 0
BBX 9 18 1 0
BITMAP
0600
0600
0600
0E00
0E00
0C80
0F80
0F00
1C00
7800
D800
9800
3800
3800
3800
3000
3000
7000
ENDCHAR
STARTCHAR Lslash
ENCODING -1
SWIDTH 42 0
DWIDTH 14 0
BBX 13 18 1 0
BITMAP
0700
0600
0600
0E00
0E00
0E80
0D80
0F80
1E00
7C00
FC00
9800
1800
3800
3800
3800
3FF8
3FF8
ENDCHAR
STARTCHAR daggerdbl
ENCODING -1
SWIDTH 42 0
DWIDTH 16 0
BBX 12 22 3 -4
BITMAP
0180
0180
0380
0300
0300
0300
3FF0
7FF0
0700
0600
0600
0600
0600
0E00
FFE0
FFC0
0C00
0C00
0C00
1C00
1800
1800
ENDCHAR
STARTCHAR fi
ENCODING -1
SWIDTH 42 0
DWIDTH 16 0
BBX 15 25 2 -5
BITMAP
01F0
03E0
070E
060E
0E00
0C00
0C00
7FFC
7FFC
181C
1818
1818
3818
3838
3038
3030
3030
7030
7070
7070
6000
6000
E000
E000
E000
ENDCHAR
STARTCHAR guilsinglright
ENCODING -1
SWIDTH 42 0
DWIDTH 8 0
BBX 7 11 1 1
BITMAP
30
30
18
1C
0C
0E
1C
38
70
E0
40
ENDCHAR
STARTCHAR OE
ENCODING -1
SWIDTH 42 0
DWIDTH 25 0
BBX 25 18 3 0
BITMAP
00FDFF80
03FFFF80
0F078000
1C038000
38038000
38030000
70070000
60070000
E007FC00
E007FC00
E0060000
E00E0000
E00E0000
E00E0000
701C0000
783C0000
3FFFFC00
0FDFFC00
ENDCHAR
STARTCHAR emdash
ENCODING -1
SWIDTH 42 0
DWIDTH 25 0
BBX 23 2 2 6
BITMAP
FFFFFE
FFFFFE
ENDCHAR
STARTCHAR caron
ENCODING -1
SWIDTH 42 0
DWIDTH 14 0
BBX 8 4 7 14
BITMAP
C7
6E
6C
38
ENDCHAR
STARTCHAR ogonek
ENCODING -1
SWIDTH 42 0
DWIDTH 14 0
BBX 4 4 4 -4
BITMAP
60
C0
C0
70
ENDCHAR
STARTCHAR hungarumlaut
ENCODING -1
SWIDTH 42 0
DWIDTH 14 0
BBX 8 4 7 14
BITMAP
1B
36
6C
D8
ENDCHAR
STARTCHAR guilsinglleft
ENCODING -1
SWIDTH 42 0
DWIDTH 8 0
BBX 7 11 3 1
BITMAP
04
0E
1C
38
70
E0
60
70
30
18
10
ENDCHAR
STARTCHAR dotaccent
ENCODING -1
SWIDTH 42 0
DWIDTH 14 0
BBX 3 2 9 16
BITMAP
E0
E0
ENDCHAR
STARTCHAR breve
ENCODING -1
SWIDTH 42 0
DWIDTH 14 0
BBX 8 4 7 14
BITMAP
C3
C2
7E
78
ENDCHAR
STARTCHAR bullet
ENCODING -1
SWIDTH 42 0
DWIDTH 16 0
BBX 9 8 5 3
BITMAP
7F80
7F80
7F80
7F00
7F00
FF00
FF00
FF00
ENDCHAR
STARTCHAR tilde
ENCODING -1
SWIDTH 42 0
DWIDTH 14 0
BBX 8 2 7 16
BITMAP
7B
DE
ENDCHAR
STARTCHAR circumflex
ENCODING -1
SWIDTH 42 0
DWIDTH 14 0
BBX 8 4 7 14
BITMAP
1E
3E
76
E3
ENDCHAR
STARTCHAR quotedblleft
ENCODING -1
SWIDTH 42 0
DWIDTH 9 0
BBX 8 6 4 12
BITMAP
31
66
46
CE
EE
CE
ENDCHAR
STARTCHAR quotesingle
ENCODING -1
SWIDTH 42 0
DWIDTH 5 0
BBX 3 6 4 12
BITMAP
E0
E0
E0
E0
E0
40
ENDCHAR
STARTCHAR scaron
ENCODING -1
SWIDTH 42 0
DWIDTH 12 0
BBX 13 18 2 0
BITMAP
0638
0370
0360
01C0
0000
07C0
1FE0
1860
3800
1C00
1E00
0F00
0780
0380
0180
C380
FF80
7E00
ENDCHAR
STARTCHAR ring
ENCODING -1
SWIDTH 42 0
DWIDTH 14 0
BBX 4 4 9 16
BITMAP
60
90
90
60
ENDCHAR
STARTCHAR quotesinglbase
ENCODING -1
SWIDTH 42 0
DWIDTH 5 0
BBX 4 7 1 -4
BITMAP
70
70
F0
20
60
60
C0
ENDCHAR
STARTCHAR florin
ENCODING -1
SWIDTH 42 0
DWIDTH 16 0
BBX 12 22 5 -4
BITMAP
01F0
07F0
0600
0C00
0C00
1C00
1C00
1800
FF00
FE00
3800
3800
3000
3000
3000
7000
7000
6000
6000
6000
E000
E000
ENDCHAR
STARTCHAR trademark
ENCODING -1
SWIDTH 42 0
DWIDTH 20 0
BBX 19 10 3 8
BITMAP
FF38E0
FF38E0
1879E0
1879C0
387BC0
307AC0
305EC0
304CC0
30CD80
70C180
ENDCHAR
STARTCHAR fraction
ENCODING -1
SWIDTH 42 0
DWIDTH 3 0
BBX 19 18 -5 0
BITMAP
0000E0
0001C0
000380
000700
000E00
001C00
001800
003000
006000
00C000
018000
030000
070000
0E0000
1C0000
380000
700000
E00000
ENDCHAR
STARTCHAR grave
ENCODING -1
SWIDTH 42 0
DWIDTH 14 0
BBX 4 4 9 14
BITMAP
E0
60
60
30
ENDCHAR
STARTCHAR perthousand
ENCODING -1
SWIDTH 42 0
DWIDTH 26 0
BBX 24 18 2 0
BITMAP
0F01C0
1F8300
398700
318600
318C00
219800
333000
3F6000
1EC000
019E0E
03BF3F
037333
066361
0C4361
184363
306667
607E7E
C0383C
ENDCHAR
STARTCHAR ellipsis
ENCODING -1
SWIDTH 42 0
DWIDTH 25 0
BBX 19 2 3 0
BITMAP
E0E060
E0E0E0
ENDCHAR
STARTCHAR quotedblright
ENCODING -1
SWIDTH 42 0
DWIDTH 9 0
BBX 8 6 4 12
BITMAP
77
67
22
62
46
88
ENDCHAR
STARTCHAR Scaron
ENCODING -1
SWIDTH 42 0
DWIDTH 14 0
BBX 14 23 2 0
BITMAP
031C
01B8
01B0
00E0
0000
03F8
07FC
0E0C
1C00
1C00
1C00
1E00
0F00
0780
03C0
01E0
0070
0070
0070
0070
C0E0
FFC0
7F00
ENDCHAR
STARTCHAR quotedblbase
ENCODING -1
SWIDTH 42 0
DWIDTH 9 0
BBX 8 8 0 -5
BITMAP
77
67
67
22
62
66
CC
88
ENDCHAR
STARTCHAR zcaron
ENCODING -1
SWIDTH 42 0
DWIDTH 13 0
BBX 14 18 1 0
BITMAP
031C
01B8
01B0
00E0
0000
1FF8
1FF8
0070
00E0
01C0
0380
0700
0E00
1C00
3800
7000
FFE0
FFE0
ENDCHAR
ENDFONT
